<svg xmlns="http://www.w3.org/2000/svg" width="170" height="46" viewBox="0 0 170 46">
  <defs>
    <linearGradient id="edge" x1="0" y1="0" x2="1" y2="0">
      <stop offset="0" stop-color="#FF00FF" stop-opacity="0"/>
      <stop offset="0.5" stop-color="#FF00FF" stop-opacity="0.85"/>
      <stop offset="1" stop-color="#FF00FF" stop-opacity="0"/>
    </linearGradient>
    <filter id="glow" x="-250%" y="-250%" width="600%" height="600%"><feGaussianBlur stdDeviation="2.2"/></filter>
    <style><![CDATA[
      .mono { font-family:'Cascadia Code','JetBrains Mono',Consolas,'Courier New',monospace; }
      .run  { animation: run 7s linear infinite; }
      .pulse{ animation: pulse 2.4s ease-in-out infinite; }
      @keyframes run   { 0% {transform:translateX(-8px);opacity:0} 12% {opacity:.9} 88% {opacity:.9} 100% {transform:translateX(162px);opacity:0} }
      @keyframes pulse { 0%,100% {opacity:1} 50% {opacity:.25} }
    ]]></style>
  </defs>
  <rect x="1.5" y="6.5" width="167" height="34" rx="8" fill="#0A0E1A" fill-opacity="0.9" stroke="#1F2A37" stroke-width="1"/>
  <rect x="1.5" y="6.5" width="167" height="2" rx="1" fill="url(#edge)" opacity="0.7"/>
  <rect x="1.5" y="15" width="2.5" height="17" rx="1.25" fill="#FF00FF" opacity="0.9"/>
  <g transform="translate(24,14) scale(0.75)" fill="#FF00FF"><path d="M24 5.457v13.909c0 .904-.732 1.636-1.636 1.636h-3.819V11.73L12 16.64l-6.545-4.91v9.273H1.636A1.636 1.636 0 0 1 0 19.366V5.457c0-2.023 2.309-3.178 3.927-1.964L5.455 4.64 12 9.548l6.545-4.91 1.528-1.145C21.69 2.28 24 3.434 24 5.457z"/></g>
  <text class="mono" text-anchor="middle" x="104.0" y="29.5" font-size="12.5" fill="#E6EDF3" letter-spacing="2" font-weight="600">EMAIL</text>
  <circle class="run" cx="6" cy="7.5" r="2.6" fill="#FF00FF" filter="url(#glow)" style="animation-delay:-1.4s"/>
</svg>